<mxfile host="app.diagrams.net" modified="2024-07-03T10:24:24.762Z" agent="Mozilla/5.0 (Windows NT 10.0; Win64; x64) AppleWebKit/537.36 (KHTML, like Gecko) Chrome/126.0.0.0 Safari/537.36" etag="Yj8LfQLJbJ4JvS9Ar_VM" version="24.6.4" type="device">
  <diagram name="Page-1" id="KA8ZA0GdRew1is343427">
    <mxGraphModel dx="1400" dy="696" grid="1" gridSize="10" guides="1" tooltips="1" connect="1" arrows="1" fold="1" page="1" pageScale="1" pageWidth="827" pageHeight="1169" math="0" shadow="0">
      <root>
        <mxCell id="0" />
        <mxCell id="1" parent="0" />
        <mxCell id="eO437W5wz9nSQv7mLp5M-13" style="edgeStyle=orthogonalEdgeStyle;rounded=0;orthogonalLoop=1;jettySize=auto;html=1;exitX=0.75;exitY=0.1;exitDx=0;exitDy=0;exitPerimeter=0;entryX=0;entryY=0.5;entryDx=0;entryDy=0;" edge="1" parent="1" source="eO437W5wz9nSQv7mLp5M-1" target="eO437W5wz9nSQv7mLp5M-3">
          <mxGeometry relative="1" as="geometry">
            <Array as="points">
              <mxPoint x="82" y="190" />
            </Array>
          </mxGeometry>
        </mxCell>
        <mxCell id="eO437W5wz9nSQv7mLp5M-14" style="edgeStyle=orthogonalEdgeStyle;rounded=0;orthogonalLoop=1;jettySize=auto;html=1;exitX=0.5;exitY=0.5;exitDx=0;exitDy=0;exitPerimeter=0;entryX=0;entryY=0.5;entryDx=0;entryDy=0;" edge="1" parent="1" source="eO437W5wz9nSQv7mLp5M-1" target="eO437W5wz9nSQv7mLp5M-4">
          <mxGeometry relative="1" as="geometry" />
        </mxCell>
        <mxCell id="eO437W5wz9nSQv7mLp5M-1" value="User" style="shape=umlActor;verticalLabelPosition=bottom;verticalAlign=top;html=1;outlineConnect=0;" vertex="1" parent="1">
          <mxGeometry x="60" y="390" width="30" height="60" as="geometry" />
        </mxCell>
        <mxCell id="eO437W5wz9nSQv7mLp5M-2" value="Solver" style="swimlane;whiteSpace=wrap;html=1;" vertex="1" parent="1">
          <mxGeometry x="209" y="120" width="410" height="590" as="geometry" />
        </mxCell>
        <mxCell id="eO437W5wz9nSQv7mLp5M-3" value="Read CNF" style="rounded=0;whiteSpace=wrap;html=1;" vertex="1" parent="eO437W5wz9nSQv7mLp5M-2">
          <mxGeometry x="30" y="40" width="120" height="60" as="geometry" />
        </mxCell>
        <mxCell id="eO437W5wz9nSQv7mLp5M-16" style="edgeStyle=orthogonalEdgeStyle;rounded=0;orthogonalLoop=1;jettySize=auto;html=1;exitX=0.5;exitY=0;exitDx=0;exitDy=0;entryX=0;entryY=0.5;entryDx=0;entryDy=0;" edge="1" parent="eO437W5wz9nSQv7mLp5M-2" source="eO437W5wz9nSQv7mLp5M-4" target="eO437W5wz9nSQv7mLp5M-5">
          <mxGeometry relative="1" as="geometry">
            <Array as="points">
              <mxPoint x="90" y="150" />
              <mxPoint x="181" y="150" />
              <mxPoint x="181" y="70" />
            </Array>
          </mxGeometry>
        </mxCell>
        <mxCell id="eO437W5wz9nSQv7mLp5M-17" style="edgeStyle=orthogonalEdgeStyle;rounded=0;orthogonalLoop=1;jettySize=auto;html=1;exitX=1;exitY=0;exitDx=0;exitDy=0;entryX=0;entryY=0.5;entryDx=0;entryDy=0;" edge="1" parent="eO437W5wz9nSQv7mLp5M-2" source="eO437W5wz9nSQv7mLp5M-4" target="eO437W5wz9nSQv7mLp5M-6">
          <mxGeometry relative="1" as="geometry" />
        </mxCell>
        <mxCell id="eO437W5wz9nSQv7mLp5M-18" style="edgeStyle=orthogonalEdgeStyle;rounded=0;orthogonalLoop=1;jettySize=auto;html=1;exitX=1;exitY=0.5;exitDx=0;exitDy=0;entryX=0;entryY=0.5;entryDx=0;entryDy=0;" edge="1" parent="eO437W5wz9nSQv7mLp5M-2" source="eO437W5wz9nSQv7mLp5M-4" target="eO437W5wz9nSQv7mLp5M-7">
          <mxGeometry relative="1" as="geometry" />
        </mxCell>
        <mxCell id="eO437W5wz9nSQv7mLp5M-21" style="edgeStyle=orthogonalEdgeStyle;rounded=0;orthogonalLoop=1;jettySize=auto;html=1;exitX=0.5;exitY=1;exitDx=0;exitDy=0;entryX=0.5;entryY=0;entryDx=0;entryDy=0;" edge="1" parent="eO437W5wz9nSQv7mLp5M-2" source="eO437W5wz9nSQv7mLp5M-4" target="eO437W5wz9nSQv7mLp5M-10">
          <mxGeometry relative="1" as="geometry" />
        </mxCell>
        <mxCell id="eO437W5wz9nSQv7mLp5M-4" value="Check SAT/UNSAT" style="rounded=0;whiteSpace=wrap;html=1;" vertex="1" parent="eO437W5wz9nSQv7mLp5M-2">
          <mxGeometry x="30" y="270" width="120" height="60" as="geometry" />
        </mxCell>
        <mxCell id="eO437W5wz9nSQv7mLp5M-5" value="Unit Propogation" style="rounded=0;whiteSpace=wrap;html=1;" vertex="1" parent="eO437W5wz9nSQv7mLp5M-2">
          <mxGeometry x="250" y="40" width="120" height="60" as="geometry" />
        </mxCell>
        <mxCell id="eO437W5wz9nSQv7mLp5M-6" value="Choose Literal using Decision Heuristic Tailored for Imbalanced Instances" style="rounded=0;whiteSpace=wrap;html=1;" vertex="1" parent="eO437W5wz9nSQv7mLp5M-2">
          <mxGeometry x="250" y="160" width="120" height="60" as="geometry" />
        </mxCell>
        <mxCell id="eO437W5wz9nSQv7mLp5M-19" style="edgeStyle=orthogonalEdgeStyle;rounded=0;orthogonalLoop=1;jettySize=auto;html=1;exitX=0.5;exitY=1;exitDx=0;exitDy=0;" edge="1" parent="eO437W5wz9nSQv7mLp5M-2" source="eO437W5wz9nSQv7mLp5M-7" target="eO437W5wz9nSQv7mLp5M-8">
          <mxGeometry relative="1" as="geometry" />
        </mxCell>
        <mxCell id="eO437W5wz9nSQv7mLp5M-20" style="edgeStyle=orthogonalEdgeStyle;rounded=0;orthogonalLoop=1;jettySize=auto;html=1;exitX=1;exitY=0.5;exitDx=0;exitDy=0;entryX=1;entryY=0.5;entryDx=0;entryDy=0;" edge="1" parent="eO437W5wz9nSQv7mLp5M-2" source="eO437W5wz9nSQv7mLp5M-7" target="eO437W5wz9nSQv7mLp5M-9">
          <mxGeometry relative="1" as="geometry">
            <mxPoint x="381" y="520" as="targetPoint" />
          </mxGeometry>
        </mxCell>
        <mxCell id="eO437W5wz9nSQv7mLp5M-7" value="Detect Conflict" style="rounded=0;whiteSpace=wrap;html=1;" vertex="1" parent="eO437W5wz9nSQv7mLp5M-2">
          <mxGeometry x="250" y="270" width="120" height="60" as="geometry" />
        </mxCell>
        <mxCell id="eO437W5wz9nSQv7mLp5M-8" value="Learn From Conflict" style="rounded=0;whiteSpace=wrap;html=1;" vertex="1" parent="eO437W5wz9nSQv7mLp5M-2">
          <mxGeometry x="250" y="380" width="120" height="60" as="geometry" />
        </mxCell>
        <mxCell id="eO437W5wz9nSQv7mLp5M-9" value="Backtrack/Backjump" style="rounded=0;whiteSpace=wrap;html=1;" vertex="1" parent="eO437W5wz9nSQv7mLp5M-2">
          <mxGeometry x="250" y="490" width="120" height="60" as="geometry" />
        </mxCell>
        <mxCell id="eO437W5wz9nSQv7mLp5M-10" value="Return Solving Time" style="rounded=0;whiteSpace=wrap;html=1;" vertex="1" parent="eO437W5wz9nSQv7mLp5M-2">
          <mxGeometry x="30" y="490" width="120" height="60" as="geometry" />
        </mxCell>
        <mxCell id="eO437W5wz9nSQv7mLp5M-15" style="edgeStyle=orthogonalEdgeStyle;rounded=0;orthogonalLoop=1;jettySize=auto;html=1;exitX=0;exitY=0.5;exitDx=0;exitDy=0;entryX=1;entryY=1;entryDx=0;entryDy=0;entryPerimeter=0;" edge="1" parent="1" source="eO437W5wz9nSQv7mLp5M-10" target="eO437W5wz9nSQv7mLp5M-1">
          <mxGeometry relative="1" as="geometry" />
        </mxCell>
      </root>
    </mxGraphModel>
  </diagram>
</mxfile>
